<?xml version="1.0" encoding="utf-8"?>
<!-- Generator: Adobe Illustrator 16.0.0, SVG Export Plug-In . SVG Version: 6.00 Build 0)  -->
<!DOCTYPE svg PUBLIC "-//W3C//DTD SVG 1.1//EN" "http://www.w3.org/Graphics/SVG/1.1/DTD/svg11.dtd">
<svg version="1.1" id="Layer_1" xmlns="http://www.w3.org/2000/svg" xmlns:xlink="http://www.w3.org/1999/xlink" x="0px" y="0px"
	 width="450px" height="350px" viewBox="0 0 450 350" enable-background="new 0 0 450 350" xml:space="preserve">
<path fill="#010101" d="M362.717,191.939c-17.7-17.7-39.055-26.55-64.073-26.55H140.052c-25.014,0-46.377,8.85-64.075,26.55
	c-17.701,17.699-26.551,39.056-26.551,64.073c0,25.021,8.852,46.376,26.551,64.076c17.698,17.695,39.057,26.551,64.075,26.551
	c22.657,0,42.595-7.557,59.826-22.66h38.939c17.229,15.104,37.167,22.66,59.826,22.66c25.013,0,46.373-8.85,64.073-26.551
	c17.702-17.703,26.552-39.056,26.552-64.076C389.269,230.995,380.419,209.639,362.717,191.939z M195.098,271.41
	c-1.063,1.064-2.418,1.594-4.071,1.594h-33.985v33.984c0,1.652-0.53,3.013-1.592,4.07c-1.062,1.063-2.417,1.593-4.071,1.593h-22.656
	c-1.652,0-3.009-0.53-4.072-1.593c-1.06-1.058-1.59-2.418-1.59-4.07v-33.984H89.074c-1.651,0-3.009-0.529-4.071-1.594
	c-1.061-1.059-1.591-2.415-1.591-4.069v-22.654c0-1.652,0.53-3.011,1.591-4.071c1.062-1.063,2.419-1.593,4.071-1.593h33.986v-33.983
	c0-1.652,0.529-3.011,1.59-4.072c1.062-1.063,2.42-1.592,4.071-1.592h22.656c1.654,0,3.009,0.529,4.071,1.592
	c1.063,1.062,1.592,2.42,1.592,4.072v33.983h33.985c1.653,0,3.009,0.529,4.071,1.593c1.063,1.061,1.592,2.419,1.592,4.071v22.654
	h0.002C196.69,268.995,196.161,270.352,195.098,271.41z M292.008,294.687c-4.428,4.427-9.767,6.64-16.023,6.64
	c-6.249,0-11.592-2.213-16.016-6.64c-4.426-4.421-6.636-9.764-6.636-16.017c0-6.255,2.21-11.595,6.636-16.02
	c4.424-4.42,9.767-6.638,16.016-6.638c6.257,0,11.596,2.218,16.023,6.638c4.42,4.425,6.636,9.765,6.636,16.02
	C298.644,284.923,296.428,290.266,292.008,294.687z M337.315,249.375c-4.421,4.426-9.764,6.638-16.018,6.638
	c-6.256,0-11.595-2.211-16.019-6.638c-4.426-4.426-6.636-9.764-6.636-16.02c0-6.252,2.21-11.593,6.636-16.016
	c4.424-4.427,9.763-6.639,16.019-6.639c6.254,0,11.597,2.212,16.018,6.639c4.425,4.423,6.641,9.764,6.641,16.016
	C343.956,239.611,341.743,244.95,337.315,249.375z"/>
<g>
	<path display="none" fill="#231F20" d="M322.872,3.361c-0.25,0-0.505,0.031-0.755,0.046v236.341
		c0.063,0.188,0.172,0.397,0.234,0.584c0,0,21.163-49.506,53.333-84.983c19.712-15.604,32.395-39.697,32.395-66.779
		C408.079,41.519,369.924,3.361,322.872,3.361z"/>
	<g>
		<path display="none" opacity="0.5" fill="#231F20" d="M389.269,89.515c0,36.279-29.403,65.684-65.682,65.684
			s-65.685-29.405-65.685-65.684c0-36.281,29.406-65.687,65.685-65.687S389.269,53.234,389.269,89.515z"/>
		<g>
			<path fill="#EF5735" d="M323.587,23.829c-36.278,0-65.685,29.405-65.685,65.687c0,36.279,29.406,65.684,65.685,65.684
				s65.682-29.405,65.682-65.684C389.269,53.234,359.865,23.829,323.587,23.829z M323.587,139.904
				c-27.992,0-50.768-22.774-50.768-50.766c0-27.995,22.775-50.77,50.768-50.77c27.991,0,50.765,22.775,50.765,50.77
				C374.352,117.13,351.578,139.904,323.587,139.904z"/>
			<path fill="#EF5735" d="M322.872,3.361c-47.062,0-85.21,38.158-85.21,85.209c0,19.106,6.369,36.673,16.985,50.879
				c-0.063-0.031-0.131-0.047-0.193-0.077c0,0,0.225,0.24,0.598,0.629c3.09,4.069,6.533,7.836,10.29,11.285
				c17.118,19.33,47.045,58.497,57.01,89.046c0,0,21.163-49.506,53.333-84.983c19.712-15.604,32.395-39.697,32.395-66.779
				C408.079,41.519,369.924,3.361,322.872,3.361z M323.587,139.904c-27.992,0-50.768-22.774-50.768-50.766
				c0-27.995,22.775-50.77,50.768-50.77c27.991,0,50.765,22.775,50.765,50.77C374.352,117.13,351.578,139.904,323.587,139.904z"/>
		</g>
	</g>
</g>
</svg>
