<?xml version="1.0" encoding="utf-8"?>
<!-- Generator: Adobe Illustrator 16.0.0, SVG Export Plug-In . SVG Version: 6.00 Build 0)  -->
<!DOCTYPE svg PUBLIC "-//W3C//DTD SVG 1.1//EN" "http://www.w3.org/Graphics/SVG/1.1/DTD/svg11.dtd">
<svg version="1.1" id="Layer_1" xmlns="http://www.w3.org/2000/svg" xmlns:xlink="http://www.w3.org/1999/xlink" x="0px" y="0px"
	 width="249.092px" height="50px" viewBox="0 0 249.092 50" enable-background="new 0 0 249.092 50" xml:space="preserve">
<rect x="51.706" y="1.96" fill="none" width="241.809" height="83.959"/>
<text transform="matrix(1 0 0 1 51.7061 48.6289)"><tspan x="0" y="0" fill="#4BB749" font-family="'Haettenschweiler'" font-size="46">local</tspan><tspan x="64.979" y="0" fill="#5ACAE9" font-family="'Impact'" font-size="59">GAME</tspan></text>
<path fill="#010101" d="M44.586,27.314c-2.419-2.418-5.337-3.628-8.755-3.628H14.16c-3.418,0-6.337,1.209-8.755,3.628
	c-2.419,2.419-3.628,5.337-3.628,8.756s1.209,6.337,3.628,8.756c2.418,2.418,5.337,3.628,8.755,3.628
	c3.096,0,5.821-1.032,8.175-3.097h5.321c2.354,2.064,5.079,3.097,8.175,3.097c3.418,0,6.336-1.21,8.755-3.628
	c2.419-2.419,3.628-5.337,3.628-8.756S47.005,29.733,44.586,27.314z M21.682,38.175c-0.145,0.145-0.331,0.217-0.556,0.217h-4.644
	v4.645c0,0.226-0.072,0.411-0.218,0.557c-0.145,0.145-0.33,0.217-0.556,0.217h-3.096c-0.226,0-0.411-0.072-0.557-0.217
	c-0.145-0.146-0.217-0.331-0.217-0.557v-4.645H7.194c-0.226,0-0.412-0.072-0.556-0.217c-0.145-0.146-0.218-0.33-0.218-0.557v-3.096
	c0-0.227,0.073-0.411,0.218-0.557c0.145-0.145,0.33-0.218,0.556-0.218h4.644v-4.644c0-0.226,0.072-0.411,0.217-0.557
	c0.145-0.145,0.331-0.217,0.556-0.217h3.096c0.226,0,0.411,0.072,0.556,0.217c0.146,0.146,0.217,0.331,0.217,0.557v4.644h4.644
	c0.226,0,0.411,0.073,0.556,0.218c0.146,0.146,0.218,0.33,0.218,0.557v3.096h0C21.899,37.845,21.827,38.029,21.682,38.175z
	 M34.924,41.354c-0.604,0.605-1.334,0.907-2.189,0.907c-0.854,0-1.584-0.302-2.188-0.907c-0.605-0.604-0.907-1.334-0.907-2.188
	s0.302-1.585,0.907-2.188c0.604-0.604,1.334-0.907,2.188-0.907c0.855,0,1.584,0.303,2.189,0.907
	c0.604,0.604,0.907,1.334,0.907,2.188S35.528,40.75,34.924,41.354z M41.115,35.163c-0.604,0.604-1.334,0.907-2.189,0.907
	c-0.854,0-1.584-0.303-2.188-0.907c-0.605-0.604-0.907-1.334-0.907-2.189c0-0.854,0.302-1.583,0.907-2.188
	c0.604-0.604,1.334-0.906,2.188-0.906c0.855,0,1.585,0.302,2.189,0.906c0.605,0.605,0.908,1.335,0.908,2.188
	C42.023,33.829,41.721,34.559,41.115,35.163z"/>
<g>
	<path display="none" fill="#231F20" d="M39.142,1.546c-0.034,0-0.069,0.004-0.103,0.006v32.295c0.009,0.026,0.023,0.054,0.032,0.08
		c0,0,2.892-6.766,7.288-11.613c2.693-2.132,4.427-5.424,4.427-9.125C50.785,6.76,45.571,1.546,39.142,1.546z"/>
	<g>
		<circle display="none" opacity="0.5" fill="#231F20" cx="39.239" cy="13.318" r="8.976"/>
		<g>
			<path fill="#EF5735" d="M39.239,4.342c-4.957,0-8.976,4.019-8.976,8.976s4.019,8.976,8.976,8.976
				c4.958,0,8.976-4.019,8.976-8.976S44.197,4.342,39.239,4.342z M39.239,20.205c-3.825,0-6.937-3.113-6.937-6.938
				c0-3.825,3.112-6.938,6.937-6.938s6.937,3.113,6.937,6.938C46.176,17.092,43.064,20.205,39.239,20.205z"/>
			<path fill="#EF5735" d="M39.142,1.546c-6.431,0-11.644,5.214-11.644,11.644c0,2.611,0.87,5.011,2.321,6.952
				c-0.009-0.004-0.018-0.006-0.027-0.01c0,0,0.031,0.033,0.082,0.085c0.422,0.556,0.893,1.07,1.406,1.542
				c2.339,2.642,6.429,7.994,7.79,12.168c0,0,2.892-6.766,7.288-11.613c2.693-2.132,4.427-5.424,4.427-9.125
				C50.785,6.76,45.571,1.546,39.142,1.546z M39.239,20.205c-3.825,0-6.937-3.113-6.937-6.938c0-3.825,3.112-6.938,6.937-6.938
				s6.937,3.113,6.937,6.938C46.176,17.092,43.064,20.205,39.239,20.205z"/>
		</g>
	</g>
</g>
</svg>
