<?xml version="1.0" encoding="utf-8"?>
<!-- Generator: Adobe Illustrator 16.0.0, SVG Export Plug-In . SVG Version: 6.00 Build 0)  -->
<!DOCTYPE svg PUBLIC "-//W3C//DTD SVG 1.1//EN" "http://www.w3.org/Graphics/SVG/1.1/DTD/svg11.dtd">
<svg version="1.1" id="Layer_1" xmlns="http://www.w3.org/2000/svg" xmlns:xlink="http://www.w3.org/1999/xlink" x="0px" y="0px"
	 width="249.092px" height="50px" viewBox="0 0 249.092 50" enable-background="new 0 0 249.092 50" xml:space="preserve">
<g>
	<path fill="#4BB749" d="M58.871,48.629H52.47V16.42h6.401V48.629z"/>
	<path fill="#4BB749" d="M60.196,43.485v-15.61c0-3.668,2.538-5.503,7.614-5.503c1.961,0,3.687,0.427,5.177,1.28
		c1.49,0.854,2.235,2.187,2.235,3.998v16.06c0,3.519-2.471,5.278-7.412,5.278C62.734,48.988,60.196,47.154,60.196,43.485z
		 M68.821,43.665v-15.97c0-0.854-0.367-1.28-1.101-1.28c-0.749,0-1.123,0.427-1.123,1.28v15.97c0,0.884,0.374,1.325,1.123,1.325
		C68.454,44.99,68.821,44.549,68.821,43.665z"/>
	<path fill="#4BB749" d="M91.484,34.097h-6.401v-6.401c0-0.854-0.36-1.28-1.079-1.28c-0.733,0-1.1,0.427-1.1,1.28v15.97
		c0,0.884,0.367,1.325,1.1,1.325c0.719,0,1.079-0.441,1.079-1.325v-6.312h6.401v6.356c0,3.519-2.463,5.278-7.39,5.278
		c-5.062,0-7.592-1.834-7.592-5.503v-15.61c0-3.668,2.53-5.503,7.592-5.503c4.926,0,7.39,1.76,7.39,5.278V34.097z"/>
	<path fill="#4BB749" d="M107.993,48.629h-5.66v-1.011c-0.479,0.913-1.85,1.37-4.11,1.37c-3.489,0-5.233-1.362-5.233-4.088v-5.233
		c0-1.168,0.423-2.187,1.269-3.055c0.846-0.868,2.549-1.954,5.11-3.257c1.482-0.748,2.224-1.348,2.224-1.797v-3.863
		c0-0.854-0.367-1.28-1.101-1.28c-0.839,0-1.258,1.041-1.258,3.122c0,0.375,0.022,0.929,0.067,1.662
		c0.06,0.734,0.09,1.288,0.09,1.662h-6.177V27.65c0-3.519,2.545-5.278,7.637-5.278c4.762,0,7.143,1.834,7.143,5.503V48.629z
		 M101.592,43.755v-6.716c-1.468,0.359-2.201,1.019-2.201,1.977v4.739c0,0.794,0.382,1.19,1.146,1.19
		C101.24,44.945,101.592,44.549,101.592,43.755z"/>
	<path fill="#4BB749" d="M115.944,48.629h-6.401V16.42h6.401V48.629z"/>
	<path fill="#5ACAE9" d="M146.935,19.158h-12.128v-4.235c0-2.669-0.115-4.34-0.346-5.013c-0.23-0.672-0.778-1.008-1.642-1.008
		c-0.749,0-1.258,0.288-1.527,0.864c-0.269,0.576-0.403,2.055-0.403,4.437v22.384c0,2.094,0.134,3.472,0.403,4.134
		c0.269,0.663,0.807,0.994,1.613,0.994c0.883,0,1.484-0.375,1.8-1.123c0.317-0.75,0.476-2.209,0.476-4.379v-5.531h-2.449v-7.087
		h14.203v25.035h-7.622l-1.122-3.342c-0.827,1.44-1.87,2.521-3.128,3.241c-1.259,0.72-2.743,1.08-4.454,1.08
		c-2.038,0-3.945-0.495-5.723-1.483c-1.778-0.989-3.128-2.214-4.051-3.674c-0.923-1.459-1.5-2.99-1.73-4.595
		c-0.23-1.603-0.346-4.009-0.346-7.216V18.783c0-4.456,0.24-7.692,0.72-9.708c0.48-2.017,1.858-3.865,4.134-5.545
		c2.275-1.681,5.219-2.521,8.83-2.521c3.553,0,6.501,0.73,8.844,2.189c2.343,1.46,3.87,3.193,4.581,5.2
		c0.71,2.007,1.066,4.922,1.066,8.744V19.158z"/>
	<path fill="#5ACAE9" d="M172.596,1.988l6.936,46.641h-12.395l-0.651-8.383h-4.339l-0.729,8.383h-12.539l6.187-46.641H172.596z
		 M166.168,31.978c-0.615-5.282-1.23-11.813-1.848-19.59c-1.236,8.931-2.012,15.462-2.328,19.59H166.168z"/>
	<path fill="#5ACAE9" d="M219.013,1.988v46.641h-10.602l-0.014-31.488l-4.221,31.488h-7.52l-4.45-30.768l-0.015,30.768h-10.602
		V1.988h15.693c0.466,2.804,0.945,6.109,1.439,9.916l1.723,11.864l2.787-21.779H219.013z"/>
	<path fill="#5ACAE9" d="M223.882,1.988h20.224v9.334h-8.095v8.844h7.576v8.873h-7.576v10.256h8.901v9.334h-21.03V1.988z"/>
</g>
<path fill="#010101" d="M44.586,27.314c-2.419-2.418-5.337-3.628-8.755-3.628H14.16c-3.418,0-6.337,1.209-8.755,3.628
	c-2.419,2.419-3.628,5.337-3.628,8.756s1.209,6.337,3.628,8.756c2.418,2.418,5.337,3.628,8.755,3.628
	c3.096,0,5.821-1.032,8.175-3.097h5.321c2.354,2.064,5.079,3.097,8.175,3.097c3.418,0,6.336-1.21,8.755-3.628
	c2.419-2.419,3.628-5.337,3.628-8.756S47.005,29.733,44.586,27.314z M21.682,38.175c-0.145,0.145-0.331,0.217-0.556,0.217h-4.644
	v4.645c0,0.226-0.072,0.411-0.218,0.557c-0.145,0.145-0.33,0.217-0.556,0.217h-3.096c-0.226,0-0.411-0.072-0.557-0.217
	c-0.145-0.146-0.217-0.331-0.217-0.557v-4.645H7.194c-0.226,0-0.412-0.072-0.556-0.217c-0.145-0.146-0.218-0.33-0.218-0.557v-3.096
	c0-0.227,0.073-0.411,0.218-0.557c0.145-0.145,0.33-0.218,0.556-0.218h4.644v-4.644c0-0.226,0.072-0.411,0.217-0.557
	c0.145-0.145,0.331-0.217,0.556-0.217h3.096c0.226,0,0.411,0.072,0.556,0.217c0.146,0.146,0.217,0.331,0.217,0.557v4.644h4.644
	c0.226,0,0.411,0.073,0.556,0.218c0.146,0.146,0.218,0.33,0.218,0.557v3.096h0C21.899,37.845,21.827,38.029,21.682,38.175z
	 M34.924,41.354c-0.604,0.605-1.334,0.907-2.189,0.907c-0.854,0-1.584-0.302-2.188-0.907c-0.605-0.604-0.907-1.334-0.907-2.188
	s0.302-1.585,0.907-2.188c0.604-0.604,1.334-0.907,2.188-0.907c0.855,0,1.584,0.303,2.189,0.907
	c0.604,0.604,0.907,1.334,0.907,2.188S35.528,40.75,34.924,41.354z M41.115,35.163c-0.604,0.604-1.334,0.907-2.189,0.907
	c-0.854,0-1.584-0.303-2.188-0.907c-0.605-0.604-0.907-1.334-0.907-2.189c0-0.854,0.302-1.583,0.907-2.188
	c0.604-0.604,1.334-0.906,2.188-0.906c0.855,0,1.585,0.302,2.189,0.906c0.605,0.605,0.908,1.335,0.908,2.188
	C42.023,33.829,41.721,34.559,41.115,35.163z"/>
<g>
	<path display="none" fill="#231F20" d="M39.142,1.546c-0.034,0-0.069,0.004-0.103,0.006v32.295c0.009,0.026,0.023,0.054,0.032,0.08
		c0,0,2.892-6.766,7.288-11.613c2.693-2.132,4.427-5.424,4.427-9.125C50.785,6.76,45.571,1.546,39.142,1.546z"/>
	<g>
		<circle display="none" opacity="0.5" fill="#231F20" cx="39.239" cy="13.318" r="8.976"/>
		<g>
			<path fill="#EF5735" d="M39.239,4.342c-4.957,0-8.976,4.019-8.976,8.976s4.019,8.976,8.976,8.976
				c4.958,0,8.976-4.019,8.976-8.976S44.197,4.342,39.239,4.342z M39.239,20.205c-3.825,0-6.937-3.113-6.937-6.938
				c0-3.825,3.112-6.938,6.937-6.938s6.937,3.113,6.937,6.938C46.176,17.092,43.064,20.205,39.239,20.205z"/>
			<path fill="#EF5735" d="M39.142,1.546c-6.431,0-11.644,5.214-11.644,11.644c0,2.611,0.87,5.011,2.321,6.952
				c-0.009-0.004-0.018-0.006-0.027-0.01c0,0,0.031,0.033,0.082,0.085c0.422,0.556,0.893,1.07,1.406,1.542
				c2.339,2.642,6.429,7.994,7.79,12.168c0,0,2.892-6.766,7.288-11.613c2.693-2.132,4.427-5.424,4.427-9.125
				C50.785,6.76,45.571,1.546,39.142,1.546z M39.239,20.205c-3.825,0-6.937-3.113-6.937-6.938c0-3.825,3.112-6.938,6.937-6.938
				s6.937,3.113,6.937,6.938C46.176,17.092,43.064,20.205,39.239,20.205z"/>
		</g>
	</g>
</g>
</svg>
